<svg xmlns="http://www.w3.org/2000/svg" viewBox="0 0 256 256" width="256" height="256">
  <defs>
    <radialGradient id="bgw" cx="50%" cy="40%" r="75%">
      <stop offset="0%" stop-color="#33414f"/>
      <stop offset="60%" stop-color="#1d2731"/>
      <stop offset="100%" stop-color="#0b1014"/>
    </radialGradient>
    <radialGradient id="eyew" cx="50%" cy="50%" r="50%">
      <stop offset="0%" stop-color="#fff6c4"/>
      <stop offset="60%" stop-color="#ffd24a"/>
      <stop offset="100%" stop-color="#d98a17"/>
    </radialGradient>
  </defs>
  <rect width="256" height="256" fill="url(#bgw)"/>
  <!-- tête de loup -->
  <g fill="#0e151b" stroke="#26323c" stroke-width="3" stroke-linejoin="round">
    <polygon points="70,70 96,60 100,104 66,108"/>
    <polygon points="186,70 160,60 156,104 190,108"/>
    <path d="M78 92 C70 140 92 168 128 196 C164 168 186 140 178 92 C160 78 96 78 78 92 Z"/>
    <polygon points="112,176 128,210 144,176"/>
  </g>
  <!-- museau clair -->
  <path d="M112 168 C120 176 136 176 144 168 L138 190 L128 198 L118 190 Z" fill="#1c2731"/>
  <!-- nez -->
  <polygon points="120,182 136,182 128,194" fill="#05080a"/>
  <!-- yeux luisants -->
  <polygon points="96,120 120,112 116,132 98,134" fill="url(#eyew)"/>
  <polygon points="160,120 136,112 140,132 158,134" fill="url(#eyew)"/>
  <radialGradient id="vigw" cx="50%" cy="48%" r="60%">
    <stop offset="68%" stop-color="#000" stop-opacity="0"/>
    <stop offset="100%" stop-color="#000" stop-opacity="0.5"/>
  </radialGradient>
  <rect width="256" height="256" fill="url(#vigw)"/>
</svg>
