<svg xmlns="http://www.w3.org/2000/svg" viewBox="0 0 256 256" width="256" height="256">
  <defs>
    <radialGradient id="bgk" cx="50%" cy="40%" r="80%">
      <stop offset="0%" stop-color="#4a2230"/>
      <stop offset="55%" stop-color="#2a1018"/>
      <stop offset="100%" stop-color="#0e0508"/>
    </radialGradient>
    <linearGradient id="skink" x1="0" y1="0" x2="0" y2="1">
      <stop offset="0%" stop-color="#86a84f"/>
      <stop offset="100%" stop-color="#48652a"/>
    </linearGradient>
    <linearGradient id="goldk" x1="0" y1="0" x2="0" y2="1">
      <stop offset="0%" stop-color="#f6d98a"/>
      <stop offset="100%" stop-color="#9c7a30"/>
    </linearGradient>
    <radialGradient id="eyek" cx="50%" cy="50%" r="50%">
      <stop offset="0%" stop-color="#fff0a0"/>
      <stop offset="55%" stop-color="#ff5a2e"/>
      <stop offset="100%" stop-color="#a51d0c"/>
    </radialGradient>
  </defs>
  <rect width="256" height="256" fill="url(#bgk)"/>
  <!-- cornes -->
  <path d="M74 92 C40 70 34 38 50 26 C52 56 70 70 92 80 Z" fill="#1c130d" stroke="#0a0705" stroke-width="2"/>
  <path d="M182 92 C216 70 222 38 206 26 C204 56 186 70 164 80 Z" fill="#1c130d" stroke="#0a0705" stroke-width="2"/>
  <!-- oreilles -->
  <polygon points="74,108 24,84 70,140" fill="url(#skink)" stroke="#2c4019" stroke-width="3"/>
  <polygon points="182,108 232,84 186,140" fill="url(#skink)" stroke="#2c4019" stroke-width="3"/>
  <!-- tête -->
  <path d="M80 84 C112 64 144 64 176 84 C196 120 192 164 160 194 C142 210 114 210 96 194 C64 164 60 120 80 84 Z"
        fill="url(#skink)" stroke="#2c4019" stroke-width="3"/>
  <!-- couronne -->
  <path d="M86 86 L100 64 L114 82 L128 58 L142 82 L156 64 L170 86 Z" fill="url(#goldk)" stroke="#5e4718" stroke-width="2"/>
  <circle cx="128" cy="74" r="4" fill="#c0354a"/>
  <!-- yeux ardents -->
  <path d="M88 124 L120 132 L112 142 L90 138 Z" fill="#1a2710"/>
  <path d="M168 124 L136 132 L144 142 L166 138 Z" fill="#1a2710"/>
  <ellipse cx="104" cy="132" rx="9" ry="6" fill="url(#eyek)"/>
  <ellipse cx="152" cy="132" rx="9" ry="6" fill="url(#eyek)"/>
  <!-- nez -->
  <polygon points="120,146 136,146 128,166" fill="#3c5622"/>
  <!-- mâchoire + crocs -->
  <path d="M96 172 C116 190 140 190 160 172 L152 178 L146 190 L138 178 L128 192 L118 178 L110 190 L104 178 Z" fill="#0e1608"/>
  <polygon points="110,176 116,196 122,176" fill="#f1f4e2"/>
  <polygon points="134,176 140,196 146,176" fill="#f1f4e2"/>
  <radialGradient id="vigk" cx="50%" cy="48%" r="62%">
    <stop offset="66%" stop-color="#000" stop-opacity="0"/>
    <stop offset="100%" stop-color="#000" stop-opacity="0.55"/>
  </radialGradient>
  <rect width="256" height="256" fill="url(#vigk)"/>
</svg>
