<svg xmlns="http://www.w3.org/2000/svg" viewBox="0 0 256 256" width="256" height="256">
  <defs>
    <radialGradient id="bgb" cx="50%" cy="40%" r="75%">
      <stop offset="0%" stop-color="#3a2e26"/>
      <stop offset="60%" stop-color="#241b15"/>
      <stop offset="100%" stop-color="#100a07"/>
    </radialGradient>
    <linearGradient id="hide" x1="0" y1="0" x2="0" y2="1">
      <stop offset="0%" stop-color="#5a4536"/>
      <stop offset="100%" stop-color="#33261d"/>
    </linearGradient>
  </defs>
  <rect width="256" height="256" fill="url(#bgb)"/>
  <!-- oreilles -->
  <polygon points="82,86 60,52 104,80" fill="url(#hide)" stroke="#1d140d" stroke-width="3"/>
  <polygon points="174,86 196,52 152,80" fill="url(#hide)" stroke="#1d140d" stroke-width="3"/>
  <!-- tête -->
  <path d="M86 84 C112 70 144 70 170 84 C188 108 184 140 162 162 L150 186 C140 196 116 196 106 186 L94 162 C72 140 68 108 86 84 Z"
        fill="url(#hide)" stroke="#1d140d" stroke-width="3"/>
  <!-- groin -->
  <rect x="104" y="158" width="48" height="34" rx="16" fill="#2b201a"/>
  <ellipse cx="118" cy="176" rx="4" ry="6" fill="#0c0805"/>
  <ellipse cx="138" cy="176" rx="4" ry="6" fill="#0c0805"/>
  <!-- défenses -->
  <path d="M104 184 C92 196 86 184 92 168 C96 178 102 182 110 182 Z" fill="#efe8d2"/>
  <path d="M152 184 C164 196 170 184 164 168 C160 178 154 182 146 182 Z" fill="#efe8d2"/>
  <!-- yeux -->
  <ellipse cx="106" cy="120" rx="7" ry="5" fill="#ffcf5e"/>
  <ellipse cx="150" cy="120" rx="7" ry="5" fill="#ffcf5e"/>
  <circle cx="107" cy="120" r="2.4" fill="#241200"/>
  <circle cx="151" cy="120" r="2.4" fill="#241200"/>
  <radialGradient id="vigb" cx="50%" cy="48%" r="60%">
    <stop offset="68%" stop-color="#000" stop-opacity="0"/>
    <stop offset="100%" stop-color="#000" stop-opacity="0.5"/>
  </radialGradient>
  <rect width="256" height="256" fill="url(#vigb)"/>
</svg>
