<svg xmlns="http://www.w3.org/2000/svg" viewBox="0 0 256 256" width="256" height="256">
  <defs><radialGradient id="bg" cx="50%" cy="40%" r="78%"><stop offset="0%" stop-color="#1f3324"/><stop offset="100%" stop-color="#0a120c"/></radialGradient>
  <radialGradient id="vig" cx="50%" cy="50%" r="62%"><stop offset="66%" stop-color="#000" stop-opacity="0"/><stop offset="100%" stop-color="#000" stop-opacity="0.5"/></radialGradient></defs>
  <rect width="256" height="256" fill="url(#bg)"/>

  <path d="M180 64 C214 100 214 156 180 192" fill="none" stroke="#8a6a3a" stroke-width="7" stroke-linecap="round"/><line x1="184" y1="68" x2="184" y2="188" stroke="#e8e0c8" stroke-width="2"/>
  <path d="M100 196 L108 132 C112 116 144 116 148 132 L156 196 Z" fill="#3f6f4a" stroke="#c7e0a8" stroke-width="3" stroke-linejoin="round"/>
  <path d="M108 132 C112 120 144 120 148 132 L150 150 C140 142 116 142 106 150 Z" fill="#c7e0a8" opacity="0.55"/>
  <rect x="104" y="196" width="18" height="30" rx="5" fill="#3f6f4a" stroke="#c7e0a8" stroke-width="2"/>
  <rect x="134" y="196" width="18" height="30" rx="5" fill="#3f6f4a" stroke="#c7e0a8" stroke-width="2"/>
  <circle cx="128" cy="80" r="22" fill="#e9c9a8" stroke="#c7e0a8" stroke-width="2"/>
       <path d="M106 78 C106 56 150 56 150 78 L150 70 C150 50 106 50 106 70 Z" fill="#3f6f4a" stroke="#c7e0a8" stroke-width="2"/>
       <circle cx="121" cy="80" r="4.5" fill="#1a1a22"/><circle cx="135" cy="80" r="4.5" fill="#1a1a22"/>
<rect width="256" height="256" fill="url(#vig)"/>
</svg>