<svg xmlns="http://www.w3.org/2000/svg" viewBox="0 0 256 256" width="256" height="256">
  <defs><radialGradient id="bg" cx="50%" cy="40%" r="78%"><stop offset="0%" stop-color="#241f30"/><stop offset="100%" stop-color="#0a0810"/></radialGradient>
  <radialGradient id="vig" cx="50%" cy="50%" r="62%"><stop offset="66%" stop-color="#000" stop-opacity="0"/><stop offset="100%" stop-color="#000" stop-opacity="0.5"/></radialGradient></defs>
  <rect width="256" height="256" fill="url(#bg)"/>

  <g transform="rotate(28 176 150)"><polygon points="172,96 180,96 178,150 174,150" fill="#d9e2ec" stroke="#8a97a6" stroke-width="2"/><rect x="170" y="150" width="12" height="7" fill="#3a2f44"/></g>
            <g transform="rotate(-22 84 150)"><polygon points="80,100 88,100 86,150 82,150" fill="#d9e2ec" stroke="#8a97a6" stroke-width="2"/><rect x="78" y="150" width="12" height="7" fill="#3a2f44"/></g>
  <path d="M100 196 L108 132 C112 116 144 116 148 132 L156 196 Z" fill="#3a3550" stroke="#9b6dc9" stroke-width="3" stroke-linejoin="round"/>
  <path d="M108 132 C112 120 144 120 148 132 L150 150 C140 142 116 142 106 150 Z" fill="#9b6dc9" opacity="0.55"/>
  <rect x="104" y="196" width="18" height="30" rx="5" fill="#3a3550" stroke="#9b6dc9" stroke-width="2"/>
  <rect x="134" y="196" width="18" height="30" rx="5" fill="#3a3550" stroke="#9b6dc9" stroke-width="2"/>
  <path d="M104 70 C104 44 152 44 152 70 C158 92 150 108 128 110 C106 108 98 92 104 70 Z" fill="#3a3550" stroke="#9b6dc9" stroke-width="3"/>
       <path d="M112 86 C112 74 144 74 144 86 C144 98 134 104 128 104 C122 104 112 98 112 86 Z" fill="#0b0c12"/>
       <circle cx="120" cy="90" r="4.5" fill="#caa6ff"/><circle cx="136" cy="90" r="4.5" fill="#caa6ff"/>
<rect width="256" height="256" fill="url(#vig)"/>
</svg>