<svg xmlns="http://www.w3.org/2000/svg" viewBox="0 0 64 48" width="128" height="96">
  <!-- Loup (flat, propre), face à droite -->
  <ellipse cx="32" cy="44" rx="24" ry="3.4" fill="#000" opacity="0.18"/>
  <!-- Queue -->
  <path d="M8 22 Q1 18 4 28 Q9 26 13 30 Z" fill="#5b626c"/>
  <!-- Pattes -->
  <rect x="14" y="32" width="5" height="10" rx="2.4" fill="#4d545e"/>
  <rect x="22" y="32" width="5" height="10" rx="2.4" fill="#5b626c"/>
  <rect x="38" y="32" width="5" height="10" rx="2.4" fill="#4d545e"/>
  <rect x="46" y="32" width="5" height="10" rx="2.4" fill="#5b626c"/>
  <!-- Corps -->
  <ellipse cx="30" cy="24" rx="20" ry="11" fill="#6a727e"/>
  <ellipse cx="30" cy="28" rx="18" ry="7" fill="#828a96"/>
  <!-- Tête -->
  <circle cx="49" cy="22" r="9" fill="#6a727e"/>
  <!-- Oreille -->
  <path d="M46 13 L50 7 L53 15 Z" fill="#5b626c"/>
  <!-- Museau -->
  <path d="M55 20 Q63 21 62 26 Q57 27 54 25 Z" fill="#5b626c"/>
  <circle cx="61" cy="24" r="1.8" fill="#1b1f24"/>
  <!-- Œil -->
  <circle cx="50" cy="21" r="2.2" fill="#ffd24a"/>
  <circle cx="50.6" cy="21" r="1" fill="#1b1f24"/>
</svg>
