<svg xmlns="http://www.w3.org/2000/svg" viewBox="0 0 40 28" shape-rendering="crispEdges" width="80" height="56">
  <!-- Loup de profil, face à droite. -->
  <!-- Queue -->
  <polygon points="2,6 9,11 9,15 6,14" fill="#444b57"/>
  <!-- Pattes -->
  <rect x="9" y="17" width="3" height="9" fill="#363c46"/>
  <rect x="14" y="17" width="3" height="9" fill="#3c424d"/>
  <rect x="24" y="17" width="3" height="9" fill="#363c46"/>
  <rect x="29" y="17" width="3" height="9" fill="#3c424d"/>
  <!-- Corps -->
  <rect x="8" y="9" width="24" height="10" fill="#4a525e"/>
  <rect x="8" y="9" width="24" height="3" fill="#59626f"/>
  <rect x="8" y="16" width="24" height="3" fill="#3a414c"/>
  <!-- Tête -->
  <rect x="29" y="7" width="8" height="9" fill="#4a525e"/>
  <!-- Oreille -->
  <polygon points="30,2 34,3 32,8" fill="#3c424d"/>
  <!-- Museau -->
  <polygon points="37,10 40,12 40,15 37,15" fill="#3a414c"/>
  <rect x="39" y="12" width="1" height="2" fill="#0c0e12"/>
  <!-- Œil luisant -->
  <rect x="33" y="9" width="2" height="2" fill="#ffd24a"/>
  <!-- Crocs -->
  <rect x="37" y="15" width="1" height="1" fill="#eef3df"/>
</svg>
