<svg xmlns="http://www.w3.org/2000/svg" viewBox="0 0 48 64" width="96" height="128">
  <!-- Bandit encapuchonné (flat, propre), face à droite -->
  <ellipse cx="24" cy="61" rx="13" ry="3.2" fill="#000" opacity="0.18"/>
  <!-- Bottes / jambes -->
  <rect x="19" y="48" width="5" height="9" rx="2.2" fill="#2a2c36"/>
  <rect x="25" y="48" width="5" height="9" rx="2.2" fill="#23252e"/>
  <rect x="18.5" y="54" width="6.5" height="5" rx="2.2" fill="#15161c"/>
  <rect x="25" y="54" width="6.5" height="5" rx="2.2" fill="#101117"/>
  <!-- Cape -->
  <path d="M14 28 q10 -6 20 0 l-2 22 h-16 z" fill="#3c3f4d"/>
  <path d="M18 30 q6 -3 12 0 l-1 18 h-10 z" fill="#474b59"/>
  <!-- Bras + dague -->
  <rect x="31" y="33" width="4.5" height="9" rx="2.2" fill="#2a2c36"/>
  <polygon points="36,18 39,21 37,34 35,34" fill="#e6ebf3"/>
  <rect x="33" y="33" width="6" height="2.6" rx="1.2" fill="#8a6d2f"/>
  <!-- Capuche -->
  <path d="M15 20 q9 -12 18 0 q0 8 -3 11 h-12 q-3 -3 -3 -11 z" fill="#3c3f4d"/>
  <path d="M15 20 q9 -12 18 0 q-9 -5 -18 0 z" fill="#474b59"/>
  <!-- Visage dans l'ombre + yeux -->
  <path d="M18 22 q6 -4 12 0 q0 6 -3 8 h-6 q-3 -2 -3 -8 z" fill="#0c0d12"/>
  <circle cx="22" cy="25" r="1.5" fill="#9fe3ff"/>
  <circle cx="27" cy="25" r="1.5" fill="#9fe3ff"/>
</svg>
