<svg xmlns="http://www.w3.org/2000/svg" viewBox="0 0 56 70" width="112" height="140">
  <!-- Grôk, chef gobelin (boss, flat, propre), face à droite -->
  <ellipse cx="28" cy="67" rx="17" ry="3.6" fill="#000" opacity="0.2"/>
  <!-- Massue (bras arrière) -->
  <rect x="6" y="20" width="6" height="16" rx="3" fill="#6a523f"/>
  <ellipse cx="9" cy="16" rx="7" ry="6" fill="#4a382a"/>
  <!-- Jambes -->
  <rect x="20" y="50" width="6.5" height="13" rx="3" fill="#48652a"/>
  <rect x="29" y="50" width="6.5" height="13" rx="3" fill="#3f5a24"/>
  <rect x="19" y="60" width="8" height="5.5" rx="2.4" fill="#241710"/>
  <rect x="28.5" y="60" width="8" height="5.5" rx="2.4" fill="#1d130c"/>
  <!-- Pagne -->
  <path d="M17 43 h22 l-2 9 h-18 z" fill="#5a3c22"/>
  <!-- Torse massif -->
  <rect x="17" y="30" width="22" height="16" rx="8" fill="#6f9544"/>
  <ellipse cx="28" cy="37" rx="7" ry="6" fill="#86a84f"/>
  <!-- Bras avant -->
  <rect x="37" y="32" width="5.5" height="11" rx="2.6" fill="#6f9544"/>
  <!-- Tête -->
  <circle cx="28" cy="20" r="11" fill="#86a84f"/>
  <!-- Cornes -->
  <path d="M19 12 Q13 5 16 13 Q18 13 20 15 Z" fill="#241710"/>
  <path d="M37 12 Q43 5 40 13 Q38 13 36 15 Z" fill="#241710"/>
  <!-- Oreilles -->
  <path d="M18 19 L8 15 L18 26 Z" fill="#6f9544"/>
  <path d="M38 19 L48 15 L38 26 Z" fill="#6f9544"/>
  <!-- Couronne -->
  <path d="M19 12 l3 -5 l3 4 l3 -5 l3 4 l3 -5 l3 5 z" fill="#e0b257"/>
  <circle cx="28" cy="9" r="1.8" fill="#c0414a"/>
  <!-- Yeux + nez + crocs -->
  <circle cx="31" cy="19" r="2.4" fill="#ff5a2e"/>
  <circle cx="24" cy="19" r="2.4" fill="#ff5a2e"/>
  <circle cx="31.5" cy="19" r="1" fill="#3a0d00"/>
  <circle cx="24.5" cy="19" r="1" fill="#3a0d00"/>
  <path d="M31 23 Q35 25 31 28 Z" fill="#5c8038"/>
  <path d="M24 27 l1.6 3.4 l1.6 -3.4 z" fill="#f1f4e2"/>
  <path d="M30 27 l1.6 3.4 l1.6 -3.4 z" fill="#f1f4e2"/>
</svg>
