<svg xmlns="http://www.w3.org/2000/svg" viewBox="0 0 256 256" width="256" height="256">
  <defs><radialGradient id="sh" cx="50%" cy="50%" r="50%"><stop offset="0%" stop-color="#000" stop-opacity="0.45"/><stop offset="100%" stop-color="#000" stop-opacity="0"/></radialGradient></defs>
  <ellipse cx="128" cy="238" rx="62" ry="12" fill="url(#sh)"/>

  <path d="M64 110 C64 100 96 96 96 96 C96 96 128 100 128 110 L128 150 C128 174 96 188 96 188 C96 188 64 174 64 150 Z" transform="translate(-6 0)" fill="#5a86b0" stroke="#cdd9e6" stroke-width="3"/><circle cx="90" cy="142" r="9" fill="#cdd9e6"/>
  <path d="M100 196 L108 132 C112 116 144 116 148 132 L156 196 Z" fill="#3f6087" stroke="#cdd9e6" stroke-width="3" stroke-linejoin="round"/>
  <path d="M108 132 C112 120 144 120 148 132 L150 150 C140 142 116 142 106 150 Z" fill="#cdd9e6" opacity="0.55"/>
  <rect x="104" y="196" width="18" height="30" rx="5" fill="#3f6087" stroke="#cdd9e6" stroke-width="2"/>
  <rect x="134" y="196" width="18" height="30" rx="5" fill="#3f6087" stroke="#cdd9e6" stroke-width="2"/>
  <circle cx="128" cy="80" r="22" fill="#e9c9a8" stroke="#cdd9e6" stroke-width="2"/>
       <path d="M106 78 C106 56 150 56 150 78 L150 70 C150 50 106 50 106 70 Z" fill="#3f6087" stroke="#cdd9e6" stroke-width="2"/>
       <circle cx="121" cy="80" r="4.5" fill="#1a1a22"/><circle cx="135" cy="80" r="4.5" fill="#1a1a22"/>
</svg>