<svg xmlns="http://www.w3.org/2000/svg" viewBox="0 0 256 256" width="256" height="256">
  <defs><radialGradient id="sh" cx="50%" cy="50%" r="50%"><stop offset="0%" stop-color="#000" stop-opacity="0.45"/><stop offset="100%" stop-color="#000" stop-opacity="0"/></radialGradient></defs>
  <ellipse cx="128" cy="238" rx="62" ry="12" fill="url(#sh)"/>

  <g transform="rotate(12 176 150)"><rect x="172" y="70" width="8" height="120" rx="4" fill="#7a5a36" stroke="#4a3722" stroke-width="2"/><circle cx="176" cy="64" r="14" fill="#7ec8ff" stroke="#cfeaff" stroke-width="2"/><circle cx="176" cy="64" r="6" fill="#fff" opacity="0.8"/></g>
  <path d="M100 196 L108 132 C112 116 144 116 148 132 L156 196 Z" fill="#5a3f86" stroke="#b88cff" stroke-width="3" stroke-linejoin="round"/>
  <path d="M108 132 C112 120 144 120 148 132 L150 150 C140 142 116 142 106 150 Z" fill="#b88cff" opacity="0.55"/>
  <rect x="104" y="196" width="18" height="30" rx="5" fill="#5a3f86" stroke="#b88cff" stroke-width="2"/>
  <rect x="134" y="196" width="18" height="30" rx="5" fill="#5a3f86" stroke="#b88cff" stroke-width="2"/>
  <path d="M104 70 C104 44 152 44 152 70 C158 92 150 108 128 110 C106 108 98 92 104 70 Z" fill="#5a3f86" stroke="#b88cff" stroke-width="3"/>
       <path d="M112 86 C112 74 144 74 144 86 C144 98 134 104 128 104 C122 104 112 98 112 86 Z" fill="#0b0c12"/>
       <circle cx="120" cy="90" r="4.5" fill="#9be8ff"/><circle cx="136" cy="90" r="4.5" fill="#9be8ff"/>
</svg>