<svg xmlns="http://www.w3.org/2000/svg" viewBox="0 0 256 256" width="256" height="256">
  <defs>
    <radialGradient id="bg" cx="50%" cy="42%" r="78%">
      <stop offset="0%" stop-color="#2a2536"/><stop offset="62%" stop-color="#1a1622"/><stop offset="100%" stop-color="#0a080e"/>
    </radialGradient>
    <radialGradient id="vig" cx="50%" cy="48%" r="62%">
      <stop offset="66%" stop-color="#000" stop-opacity="0"/><stop offset="100%" stop-color="#000" stop-opacity="0.5"/>
    </radialGradient>
  </defs>
  <rect width="256" height="256" fill="url(#bg)"/>

  <g fill="#473c58" stroke="#6a5d84" stroke-width="4" stroke-linejoin="round">
    <path d="M64 200 L80 96 C84 64 104 44 128 44 C152 44 172 64 176 96 L192 200 Z"/>
    <polygon points="92,52 100,18 116,46"/><polygon points="164,52 156,18 140,46"/>
    <rect x="44" y="104" width="30" height="74" rx="8"/><rect x="182" y="104" width="30" height="74" rx="8"/>
  </g>
  <circle cx="128" cy="150" r="22" fill="#9b6dff" opacity="0.9"/>
  <circle cx="128" cy="150" r="11" fill="#fff" opacity="0.6"/>
  <circle cx="112" cy="86" r="7" fill="#caa6ff"/><circle cx="144" cy="86" r="7" fill="#caa6ff"/>
  <rect width="256" height="256" fill="url(#vig)"/>
</svg>