<svg xmlns="http://www.w3.org/2000/svg" viewBox="0 0 256 256" width="256" height="256">
  <defs><radialGradient id="sh" cx="50%" cy="50%" r="50%"><stop offset="0%" stop-color="#000" stop-opacity="0.45"/><stop offset="100%" stop-color="#000" stop-opacity="0"/></radialGradient></defs>
  <ellipse cx="128" cy="238" rx="62" ry="12" fill="url(#sh)"/>

  <g transform="rotate(18 170 150)"><rect x="165" y="70" width="10" height="96" rx="3" fill="#d9e2ec" stroke="#8a97a6" stroke-width="2"/><rect x="156" y="162" width="28" height="9" rx="3" fill="#6b5a3a"/><rect x="167" y="168" width="6" height="26" rx="2" fill="#6b5a3a"/></g>
  <path d="M100 196 L108 132 C112 116 144 116 148 132 L156 196 Z" fill="#8c3b32" stroke="#d8a24a" stroke-width="3" stroke-linejoin="round"/>
  <path d="M108 132 C112 120 144 120 148 132 L150 150 C140 142 116 142 106 150 Z" fill="#d8a24a" opacity="0.55"/>
  <rect x="104" y="196" width="18" height="30" rx="5" fill="#8c3b32" stroke="#d8a24a" stroke-width="2"/>
  <rect x="134" y="196" width="18" height="30" rx="5" fill="#8c3b32" stroke="#d8a24a" stroke-width="2"/>
  <circle cx="128" cy="80" r="22" fill="#e9c9a8" stroke="#d8a24a" stroke-width="2"/>
       <path d="M106 78 C106 56 150 56 150 78 L150 70 C150 50 106 50 106 70 Z" fill="#8c3b32" stroke="#d8a24a" stroke-width="2"/>
       <circle cx="121" cy="80" r="4.5" fill="#1a1a22"/><circle cx="135" cy="80" r="4.5" fill="#1a1a22"/>
</svg>