<svg xmlns="http://www.w3.org/2000/svg" viewBox="0 0 48 64" width="96" height="128">
  <!-- Guerrier (flat, propre), face à droite -->
  <ellipse cx="24" cy="61" rx="15" ry="3.4" fill="#000" opacity="0.18"/>
  <!-- Bouclier -->
  <ellipse cx="12.5" cy="37" rx="8" ry="11" fill="#3f5e8c" stroke="#2a3f5e" stroke-width="1.4"/>
  <ellipse cx="12.5" cy="37" rx="5" ry="7.5" fill="none" stroke="#e0b257" stroke-width="1.6"/>
  <!-- Jambes + bottes -->
  <rect x="19" y="45" width="5.5" height="12" rx="2.6" fill="#44597c"/>
  <rect x="25.5" y="45" width="5.5" height="12" rx="2.6" fill="#3a4d6c"/>
  <rect x="18.5" y="54" width="7" height="5" rx="2.4" fill="#283a59"/>
  <rect x="25" y="54" width="7" height="5" rx="2.4" fill="#22324d"/>
  <!-- Torse -->
  <rect x="16.5" y="28" width="16" height="20" rx="6" fill="#6d86ab"/>
  <rect x="19.5" y="31" width="10" height="13" rx="4" fill="#b7c4d6"/>
  <rect x="16.5" y="43" width="16" height="3.4" rx="1.5" fill="#e0b257"/>
  <!-- Épaules -->
  <circle cx="18" cy="30" r="4.4" fill="#44597c"/>
  <circle cx="31" cy="30" r="4.4" fill="#44597c"/>
  <!-- Cou / visage -->
  <rect x="21.5" y="22.5" width="5" height="5" fill="#e7b58a"/>
  <!-- Casque -->
  <path d="M16.5 21 a8 8 0 0 1 16 0 v3 h-16 z" fill="#8fa0bb"/>
  <path d="M16.5 21 a8 8 0 0 1 16 0 v1.4 h-16 z" fill="#b7c4d6"/>
  <rect x="18" y="20" width="13" height="2.6" rx="1" fill="#26344e"/>
  <rect x="22.5" y="9" width="3" height="5.5" rx="1.5" fill="#c0414a"/>
  <!-- Bras avant + épée -->
  <rect x="29.5" y="33" width="4.5" height="9" rx="2.2" fill="#6d86ab"/>
  <polygon points="33,7 37,12 35,38 33,38" fill="#d9e0ea"/>
  <polygon points="33,7 35,11 34,38 33,38" fill="#aeb9c9"/>
  <rect x="29.5" y="36" width="9.5" height="3.2" rx="1.4" fill="#e0b257"/>
</svg>
