<svg xmlns="http://www.w3.org/2000/svg" viewBox="0 0 64 48" width="128" height="96">
  <!-- Sanglier (flat, propre), face à droite -->
  <ellipse cx="32" cy="44" rx="24" ry="3.4" fill="#000" opacity="0.18"/>
  <!-- Queue -->
  <path d="M9 22 q-4 -1 -3 4" stroke="#33261d" stroke-width="2" fill="none"/>
  <!-- Pattes -->
  <rect x="15" y="33" width="5.5" height="9" rx="2" fill="#2b201a"/>
  <rect x="23" y="33" width="5.5" height="9" rx="2" fill="#33261d"/>
  <rect x="38" y="33" width="5.5" height="9" rx="2" fill="#2b201a"/>
  <rect x="46" y="33" width="5.5" height="9" rx="2" fill="#33261d"/>
  <!-- Corps massif -->
  <ellipse cx="31" cy="24" rx="21" ry="12" fill="#5a4536"/>
  <ellipse cx="31" cy="28" rx="19" ry="7" fill="#6a523f"/>
  <!-- Crête -->
  <path d="M20 13 q11 -5 22 0 q-11 3 -22 0" fill="#3a2c20"/>
  <!-- Tête -->
  <circle cx="50" cy="26" r="9.5" fill="#4a3a2d"/>
  <!-- Oreille -->
  <path d="M47 16 L51 11 L54 18 Z" fill="#3a2c20"/>
  <!-- Groin -->
  <ellipse cx="59" cy="28" rx="4.5" ry="4" fill="#2b201a"/>
  <circle cx="58" cy="27" r="1" fill="#0c0805"/>
  <circle cx="60.5" cy="27" r="1" fill="#0c0805"/>
  <!-- Œil -->
  <circle cx="50" cy="23" r="2" fill="#ffcf5e"/>
  <circle cx="50.5" cy="23" r="0.9" fill="#241200"/>
  <!-- Défenses -->
  <path d="M55 31 Q53 27 56 25 Q57 29 58 31 Z" fill="#efe8d2"/>
  <path d="M61 31 Q63 27 60 25 Q59 29 59 31 Z" fill="#e2dcc6"/>
</svg>
